HIERARCHY
ROOT Hips
{
	OFFSET 0.000000 100.481300 0.000000
	CHANNELS 6 Xposition Yposition Zposition Xrotation Yrotation Zrotation
	JOINT Spine
	{
		OFFSET -0.279200 12.230698 -2.892100
		CHANNELS 3 Xrotation Yrotation Zrotation
		JOINT Spine1
		{
			OFFSET -0.325700 14.269203 -3.374200
			CHANNELS 3 Xrotation Yrotation Zrotation
			JOINT Spine2
			{
				OFFSET -0.372300 16.307602 -0.352600
				CHANNELS 3 Xrotation Yrotation Zrotation
				JOINT Neck
				{
					OFFSET -0.418800 17.814194 8.416900
					CHANNELS 3 Xrotation Yrotation Zrotation
					JOINT Head
					{
						OFFSET 0.000000 7.031097 3.806800
						CHANNELS 3 Xrotation Yrotation Zrotation
						JOINT HeadTop_End
						{
							OFFSET 0.000000 24.646606 12.978600
							CHANNELS 3 Xrotation Yrotation Zrotation
							End Site
							{
								OFFSET 0.000000 27.854965 0.000000
							}
						}
					}
				}
				JOINT LeftShoulder
				{
					OFFSET 16.952999 14.495407 -7.737500
					CHANNELS 3 Xrotation Yrotation Zrotation
					JOINT LeftArm
					{
						OFFSET 9.308998 -2.777710 0.208600
						CHANNELS 3 Xrotation Yrotation Zrotation
						JOINT LeftForeArm
						{
							OFFSET 29.972298 0.000000 0.000000
							CHANNELS 3 Xrotation Yrotation Zrotation
							JOINT LeftHand
							{
								OFFSET 26.026505 0.000000 0.000000
								CHANNELS 3 Xrotation Yrotation Zrotation
								JOINT LeftHandThumb1
								{
									OFFSET 12.240501 -7.147949 9.207150
									CHANNELS 3 Xrotation Yrotation Zrotation
									JOINT LeftHandThumb2
									{
										OFFSET 4.138618 -2.389435 2.389433
										CHANNELS 3 Xrotation Yrotation Zrotation
										JOINT LeftHandThumb3
										{
											OFFSET 2.726913 -1.574387 1.574386
											CHANNELS 3 Xrotation Yrotation Zrotation
											JOINT LeftHandThumb4
											{
												OFFSET 3.941010 -2.275345 2.275342
												CHANNELS 3 Xrotation Yrotation Zrotation
												End Site
												{
													OFFSET -0.005798 5.087799 0.009903
												}
											}
										}
									}
								}
								JOINT LeftHandIndex1
								{
									OFFSET 24.424698 -1.985611 5.953459
									CHANNELS 3 Xrotation Yrotation Zrotation
									JOINT LeftHandIndex2
									{
										OFFSET 6.426697 0.000000 0.000000
										CHANNELS 3 Xrotation Yrotation Zrotation
										JOINT LeftHandIndex3
										{
											OFFSET 5.337898 0.000000 0.000000
											CHANNELS 3 Xrotation Yrotation Zrotation
											JOINT LeftHandIndex4
											{
												OFFSET 4.409401 0.000000 0.000000
												CHANNELS 3 Xrotation Yrotation Zrotation
												End Site
												{
													OFFSET 0.000000 4.409363 0.014373
												}
											}
										}
									}
								}
								JOINT LeftHandMiddle1
								{
									OFFSET 23.810104 0.000000 0.000000
									CHANNELS 3 Xrotation Yrotation Zrotation
									JOINT LeftHandMiddle2
									{
										OFFSET 7.176498 0.000000 0.000000
										CHANNELS 3 Xrotation Yrotation Zrotation
										JOINT LeftHandMiddle3
										{
											OFFSET 6.774902 0.000000 0.000000
											CHANNELS 3 Xrotation Yrotation Zrotation
											JOINT LeftHandMiddle4
											{
												OFFSET 5.403328 0.000000 0.000000
												CHANNELS 3 Xrotation Yrotation Zrotation
												End Site
												{
													OFFSET -0.027702 5.403244 0.017414
												}
											}
										}
									}
								}
								JOINT LeftHandRing1
								{
									OFFSET 22.908401 -0.839279 -6.020567
									CHANNELS 3 Xrotation Yrotation Zrotation
									JOINT LeftHandRing2
									{
										OFFSET 6.337502 0.000000 0.000000
										CHANNELS 3 Xrotation Yrotation Zrotation
										JOINT LeftHandRing3
										{
											OFFSET 5.779297 0.000000 0.000000
											CHANNELS 3 Xrotation Yrotation Zrotation
											JOINT LeftHandRing4
											{
												OFFSET 4.965698 0.000000 0.000000
												CHANNELS 3 Xrotation Yrotation Zrotation
												End Site
												{
													OFFSET 0.000000 4.965668 0.016186
												}
											}
										}
									}
								}
								JOINT LeftHandPinky1
								{
									OFFSET 20.037003 -1.530319 -10.950146
									CHANNELS 3 Xrotation Yrotation Zrotation
									JOINT LeftHandPinky2
									{
										OFFSET 5.254700 0.000000 0.000000
										CHANNELS 3 Xrotation Yrotation Zrotation
										JOINT LeftHandPinky3
										{
											OFFSET 4.810204 0.000000 0.000000
											CHANNELS 3 Xrotation Yrotation Zrotation
											JOINT LeftHandPinky4
											{
												OFFSET 3.647202 0.000000 0.000000
												CHANNELS 3 Xrotation Yrotation Zrotation
												End Site
												{
													OFFSET 0.000000 3.647186 0.011889
												}
											}
										}
									}
								}
							}
						}
					}
				}
				JOINT RightShoulder
				{
					OFFSET -15.141001 14.495407 -7.737500
					CHANNELS 3 Xrotation Yrotation Zrotation
					JOINT RightArm
					{
						OFFSET -9.308998 -2.777710 0.208500
						CHANNELS 3 Xrotation Yrotation Zrotation
						JOINT RightForeArm
						{
							OFFSET -29.972300 0.000000 0.000000
							CHANNELS 3 Xrotation Yrotation Zrotation
							JOINT RightHand
							{
								OFFSET -26.026505 0.000000 0.000000
								CHANNELS 3 Xrotation Yrotation Zrotation
								JOINT RightHandThumb1
								{
									OFFSET -12.240601 -7.148026 9.207092
									CHANNELS 3 Xrotation Yrotation Zrotation
									JOINT RightHandThumb2
									{
										OFFSET -4.138618 -2.389435 2.389433
										CHANNELS 3 Xrotation Yrotation Zrotation
										JOINT RightHandThumb3
										{
											OFFSET -2.726974 -1.574417 1.574421
											CHANNELS 3 Xrotation Yrotation Zrotation
											JOINT RightHandThumb4
											{
												OFFSET -3.941010 -2.275345 2.275343
												CHANNELS 3 Xrotation Yrotation Zrotation
												End Site
												{
													OFFSET 0.005814 5.087799 0.009927
												}
											}
										}
									}
								}
								JOINT RightHandIndex1
								{
									OFFSET -24.424698 -1.985657 5.953444
									CHANNELS 3 Xrotation Yrotation Zrotation
									JOINT RightHandIndex2
									{
										OFFSET -6.426697 0.000000 0.000000
										CHANNELS 3 Xrotation Yrotation Zrotation
										JOINT RightHandIndex3
										{
											OFFSET -5.337898 0.000000 0.000000
											CHANNELS 3 Xrotation Yrotation Zrotation
											JOINT RightHandIndex4
											{
												OFFSET -4.409401 0.000000 0.000000
												CHANNELS 3 Xrotation Yrotation Zrotation
												End Site
												{
													OFFSET 0.000000 4.409363 0.014408
												}
											}
										}
									}
								}
								JOINT RightHandMiddle1
								{
									OFFSET -23.810097 0.000000 0.000000
									CHANNELS 3 Xrotation Yrotation Zrotation
									JOINT RightHandMiddle2
									{
										OFFSET -7.176498 0.000000 0.000000
										CHANNELS 3 Xrotation Yrotation Zrotation
										JOINT RightHandMiddle3
										{
											OFFSET -6.774902 0.000000 0.000000
											CHANNELS 3 Xrotation Yrotation Zrotation
											JOINT RightHandMiddle4
											{
												OFFSET -5.403328 0.000000 0.000000
												CHANNELS 3 Xrotation Yrotation Zrotation
												End Site
												{
													OFFSET 0.027702 5.403244 0.017457
												}
											}
										}
									}
								}
								JOINT RightHandRing1
								{
									OFFSET -22.908302 -0.839325 -6.020576
									CHANNELS 3 Xrotation Yrotation Zrotation
									JOINT RightHandRing2
									{
										OFFSET -6.337502 0.000000 0.000000
										CHANNELS 3 Xrotation Yrotation Zrotation
										JOINT RightHandRing3
										{
											OFFSET -5.779297 0.000000 0.000000
											CHANNELS 3 Xrotation Yrotation Zrotation
											JOINT RightHandRing4
											{
												OFFSET -4.965698 0.000000 0.000000
												CHANNELS 3 Xrotation Yrotation Zrotation
												End Site
												{
													OFFSET 0.000000 4.965668 0.016226
												}
											}
										}
									}
								}
								JOINT RightHandPinky1
								{
									OFFSET -20.037003 -1.530334 -10.950259
									CHANNELS 3 Xrotation Yrotation Zrotation
									JOINT RightHandPinky2
									{
										OFFSET -5.254700 0.000000 0.000000
										CHANNELS 3 Xrotation Yrotation Zrotation
										JOINT RightHandPinky3
										{
											OFFSET -4.810204 0.000000 0.000000
											CHANNELS 3 Xrotation Yrotation Zrotation
											JOINT RightHandPinky4
											{
												OFFSET -3.647202 0.000000 0.000000
												CHANNELS 3 Xrotation Yrotation Zrotation
												End Site
												{
													OFFSET 0.000000 3.647186 0.011917
												}
											}
										}
									}
								}
							}
						}
					}
				}
			}
		}
	}
	JOINT LeftUpLeg
	{
		OFFSET 15.427100 -6.655098 0.678600
		CHANNELS 3 Xrotation Yrotation Zrotation
		JOINT LeftLeg
		{
			OFFSET 4.081073 -39.591068 13.024000
			CHANNELS 3 Xrotation Yrotation Zrotation
			JOINT LeftFoot
			{
				OFFSET -4.081074 -37.707932 -15.979700
				CHANNELS 3 Xrotation Yrotation Zrotation
				JOINT LeftToeBase
				{
					OFFSET 5.346399 -15.068900 20.645000
					CHANNELS 3 Xrotation Yrotation Zrotation
					JOINT LeftToe_End
					{
						OFFSET 2.754700 0.931300 11.300900
						CHANNELS 3 Xrotation Yrotation Zrotation
						End Site
						{
							OFFSET 0.000000 11.669021 0.000000
						}
					}
				}
			}
		}
	}
	JOINT RightUpLeg
	{
		OFFSET -15.569500 -6.655098 0.678600
		CHANNELS 3 Xrotation Yrotation Zrotation
		JOINT RightLeg
		{
			OFFSET -4.081825 -39.591045 13.023800
			CHANNELS 3 Xrotation Yrotation Zrotation
			JOINT RightFoot
			{
				OFFSET 4.081824 -37.707954 -15.979600
				CHANNELS 3 Xrotation Yrotation Zrotation
				JOINT RightToeBase
				{
					OFFSET -5.346400 -15.068900 20.645000
					CHANNELS 3 Xrotation Yrotation Zrotation
					JOINT RightToe_End
					{
						OFFSET -2.754700 0.931300 11.300900
						CHANNELS 3 Xrotation Yrotation Zrotation
						End Site
						{
							OFFSET 0.000000 11.669021 0.000000
						}
					}
				}
			}
		}
	}
}
MOTION
Frames: 4
Frame Time: 0.033333
1.071362 97.620255 -0.670905 -3.751390 -5.192677 -3.902689 3.293126 1.524030 2.876869 1.151890 0.334101 1.552798 1.126015 0.358537 1.555886 5.626312 -0.078963 0.454683 -7.563344 1.375724 -0.080567 -0.000000 0.000000 0.000000 1.049448 -17.442065 -12.319429 3.916250 -19.989254 -69.765253 -0.000010 -1.459368 0.000017 -33.230667 -1.357551 -6.197765 -0.663107 2.160329 4.832478 11.847819 25.421563 17.059152 -13.813934 3.537281 9.035986 0.000001 0.000001 0.000001 0.021543 -0.969791 -7.593601 0.267872 1.752893 -17.375738 0.057684 0.820953 -8.037989 -0.000001 0.000000 0.000004 -0.076311 2.665781 -15.696828 0.268783 1.755805 -17.405503 0.300525 1.853980 -18.413340 0.000001 0.000002 0.000000 0.136903 3.641775 -21.133524 0.386621 2.094790 -20.911905 0.283041 1.800633 -17.865002 -0.000000 -0.000000 -0.000000 0.932378 5.553536 -27.128427 0.268793 1.755844 -17.405854 0.241908 1.667701 -16.505895 -0.000000 0.000001 0.000001 1.208101 15.344343 14.699489 13.160501 27.557493 58.784494 0.000000 6.693737 0.000008 -20.179111 -0.514103 6.782783 -1.665047 -0.177274 -4.219565 12.711822 -29.814698 -16.129049 -15.549325 -3.563507 -12.707991 -0.000001 -0.000001 -0.000000 0.044704 1.262996 6.824043 0.213727 -1.396031 17.407038 0.046031 -0.653849 8.053222 -0.000002 -0.000000 0.000000 -0.136226 -2.205108 14.998860 0.214449 -1.398357 17.436925 0.239770 -1.476521 18.446287 -0.000000 -0.000001 0.000002 0.030608 -3.075758 20.451034 0.308440 -1.668283 20.948535 0.225820 -1.434046 17.897100 -0.000001 -0.000001 0.000001 0.746223 -4.884606 26.473695 0.214461 -1.398386 17.437237 0.193010 -1.328179 16.535821 -0.000001 -0.000001 0.000002 -10.205578 14.669428 11.519085 12.134107 1.647773 4.070430 0.795436 0.799351 -8.243811 -4.928530 0.000005 0.000001 0.000000 -0.000001 -0.000000 3.685055 -10.079740 1.720661 6.593595 -8.483815 -2.382499 -5.338138 -3.058905 4.999586 -7.282874 -0.000001 -0.000002 -0.000001 0.000000 0.000000 
1.012517 97.662094 -0.706881 -3.664266 -4.932672 -3.936004 3.303339 1.524974 2.897756 1.169898 0.334101 1.534324 1.143815 0.355111 1.536948 5.731868 0.025234 0.482433 -7.443894 1.860136 0.169275 -0.000000 0.000000 0.000000 1.039292 -17.274535 -12.359812 3.863067 -20.293230 -69.592210 0.000004 -1.481051 0.000000 -33.259739 -1.389180 -6.220328 -0.671243 2.142303 4.826356 11.855165 25.421851 17.035651 -13.813945 3.537282 9.036008 -0.000000 -0.000000 -0.000003 0.015154 -0.987724 -7.651419 0.267730 1.752447 -17.371147 0.057615 0.820485 -8.033429 0.000000 -0.000000 -0.000001 -0.075710 2.668860 -15.707661 0.269145 1.756960 -17.417344 0.300909 1.855131 -18.425170 0.000000 -0.000001 -0.000004 0.139181 3.652003 -21.234706 0.387155 2.096175 -20.926474 0.283494 1.802039 -17.879429 0.000000 -0.000000 -0.000000 0.931655 5.552414 -27.115453 0.268515 1.754942 -17.396659 0.241644 1.666797 -16.496765 0.000000 -0.000001 0.000001 1.205244 15.354841 14.700239 13.178864 27.538616 58.861102 0.000001 6.679101 0.000001 -20.149126 -0.537540 6.814116 -1.612905 -0.177029 -4.189217 12.702727 -29.814787 -16.154818 -15.547592 -3.567785 -12.697064 0.000001 -0.000001 -0.000005 0.043631 1.246431 6.865705 0.213730 -1.396026 17.407039 0.046026 -0.653846 8.053232 -0.000002 -0.000001 -0.000001 -0.132460 -2.218456 14.990004 0.214450 -1.398354 17.436930 0.239770 -1.476525 18.446265 0.000001 -0.000001 -0.000001 0.022503 -3.054534 20.462191 0.308065 -1.667281 20.935372 0.225506 -1.433055 17.884227 -0.000000 0.000000 0.000003 0.747071 -4.885908 26.492606 0.211853 -1.390058 17.330138 0.190539 -1.319829 16.428707 -0.000002 -0.000000 0.000004 -10.384018 14.676709 11.570118 12.028781 1.424822 4.049312 0.929485 0.739706 -8.196369 -4.928527 -0.000004 -0.000001 -0.000000 0.000000 0.000000 3.729271 -9.985457 1.927838 6.393652 -8.335873 -2.436722 -5.252412 -3.518130 4.905196 -7.267185 -0.000006 -0.000001 0.000000 -0.000001 0.000000 
0.954642 97.659561 -0.735734 -3.585616 -4.592138 -3.955083 3.312124 1.526355 2.906480 1.185149 0.334101 1.511431 1.159071 0.347583 1.514788 5.919033 0.169501 0.520873 -7.175630 2.521365 0.537148 -0.000000 0.000000 -0.000000 1.029868 -17.154659 -12.403344 3.811903 -20.570826 -69.397413 -0.000005 -1.488904 -0.000003 -33.253189 -1.400766 -6.229417 -0.588433 2.167747 4.783405 11.847501 25.421556 17.060175 -13.811375 3.536853 9.029598 -0.000002 -0.000002 -0.000001 0.016105 -0.959793 -7.669715 0.268968 1.756385 -17.411520 0.058198 0.824598 -8.073946 -0.000001 0.000001 0.000005 -0.067244 2.704780 -15.774904 0.269001 1.756502 -17.412659 0.300752 1.854657 -18.420305 -0.000001 -0.000000 0.000000 0.139160 3.653971 -21.281912 0.387183 2.096259 -20.927223 0.283516 1.802105 -17.880136 -0.000001 0.000000 0.000001 0.935059 5.557193 -27.200226 0.268530 1.755009 -17.397294 0.241668 1.666884 -16.497588 0.000000 -0.000000 0.000001 1.202708 15.382025 14.702095 13.203378 27.487348 58.949450 -0.000003 6.651589 0.000016 -20.081284 -0.579386 6.845922 -1.604362 -0.185988 -4.192088 12.701211 -29.814811 -16.159116 -15.547963 -3.566886 -12.699367 0.000001 0.000001 -0.000002 0.042823 1.251071 6.869601 0.213715 -1.396023 17.407062 0.046038 -0.653855 8.053217 0.000002 -0.000001 0.000001 -0.132352 -2.216845 14.967431 0.214587 -1.398787 17.442459 0.239910 -1.476946 18.451811 -0.000001 -0.000002 -0.000001 0.023147 -3.055662 20.449557 0.307911 -1.666891 20.930172 0.225370 -1.432638 17.878985 0.000000 0.000000 0.000004 0.746275 -4.884690 26.474962 0.212138 -1.390963 17.341724 0.190801 -1.320724 16.440276 0.000000 0.000002 0.000002 -10.635193 14.680141 11.619983 12.046265 1.157354 4.007568 1.000816 0.637792 -8.108194 -4.928527 -0.000008 0.000001 -0.000000 -0.000001 -0.000000 3.713611 -9.869641 2.135241 6.366483 -8.337375 -2.601082 -5.268877 -3.937463 4.927850 -7.252631 0.000006 0.000001 0.000001 -0.000001 -0.000000 
0.898460 97.614388 -0.758855 -3.512093 -4.166677 -3.962646 3.316450 1.528126 2.906317 1.193690 0.334102 1.487599 1.167457 0.345909 1.491583 6.210621 0.336374 0.579244 -6.702421 3.279591 1.024472 0.000000 0.000000 0.000000 1.022186 -17.126346 -12.449652 3.786732 -20.804574 -69.186859 -0.000001 -1.496105 0.000008 -33.190604 -1.395403 -6.232315 -0.687929 2.044128 4.782189 11.856934 25.426496 17.028645 -13.793584 3.519706 9.001914 -0.000000 -0.000000 -0.000001 -0.006052 -1.036586 -7.621211 0.267964 1.753197 -17.378885 0.057722 0.821240 -8.040770 -0.000001 -0.000000 -0.000000 -0.075820 2.662984 -15.643754 0.268279 1.754186 -17.388967 0.299984 1.852359 -18.396674 0.000000 0.000000 -0.000000 0.129640 3.624787 -21.175231 0.387290 2.096534 -20.930162 0.283606 1.802383 -17.882969 0.000000 0.000000 0.000001 0.917419 5.525193 -27.094565 0.268876 1.756105 -17.408525 0.242001 1.668014 -16.509117 0.000000 -0.000000 -0.000002 1.201769 15.423805 14.704894 13.234070 27.407550 59.046289 -0.000004 6.614569 -0.000010 -19.999477 -0.634279 6.876570 -1.612530 -0.210103 -4.216896 12.700062 -29.814817 -16.162365 -15.550500 -3.560597 -12.715415 0.000000 0.000002 -0.000001 0.041331 1.276138 6.850331 0.213721 -1.396033 17.407026 0.046028 -0.653854 8.053211 -0.000001 -0.000000 -0.000002 -0.131609 -2.214568 14.910248 0.214929 -1.399883 17.456683 0.240278 -1.478057 18.466024 0.000001 -0.000001 -0.000000 0.030803 -3.073805 20.395093 0.307970 -1.667035 20.932124 0.225412 -1.432767 17.880701 -0.000000 0.000001 0.000001 0.743370 -4.880358 26.407395 0.214268 -1.397764 17.429331 0.192821 -1.327562 16.527804 -0.000001 -0.000001 -0.000001 -10.970263 14.679931 11.670987 12.187689 0.829657 3.945366 1.017927 0.491878 -7.977515 -4.928526 0.000006 0.000004 -0.000001 -0.000001 -0.000000 3.635300 -9.740994 2.349119 6.508744 -8.475458 -2.872170 -5.382660 -4.329973 5.048918 -7.240342 -0.000008 -0.000002 0.000001 0.000000 0.000000 
